# xmcd
#
# Track frame offsets: 
#        150
#        12417
#        27545
#        39977
#        51302
#        65112
#        79087
#        91955
#        103165
#        114105
#        125277
#        136767
#        148005
#        160452
#        172480
#        185487
#        198240
#        210365
#        222317
#        233657
#        245950
#        258190
#        269565
#        281375
#        293282
#        304655
#        316322
#        328370
#        341532
#
# Disc length: 4713 seconds
#
# Revision: 2
# Processed by: cddbd v1.5.2PL0 Copyright (c) Steve Scherf et al.
# Submitted via: ExactAudioCopy v1.1
#
DISCID=b612671d
DTITLE=Floyd Tillman - I Love You So Much It Hurts_CD2
DYEAR=2004
DGENRE=Country
TTITLE0=The Village Boys: Daisy Mae
TTITLE1=The Village Boys: Anything That's Part Of You
TTITLE2=The Village Boys: I'm Gonna Change All My Ways
TTITLE3=The Village Boys: Gee! But I Feel Blue
TTITLE4=The Village Boys: The Mountains Will See Her Face No More
TTITLE5=The Village Boys:  Let's Make Believe We're Sweethearts
TTITLE6=It's Been A Long, Long Time 
TTITLE7=All Because Of You 
TTITLE8=I've Learned My Lesson Now 
TTITLE9=They Took The Stars Out Of Heaven 
TTITLE10=Rio Grande 
TTITLE11=Why Do You Treat Me This Way 
TTITLE12=There's No Use To Try It Anymore 
TTITLE13=Each Night At Nine 
TTITLE14=G. I. Blues 
TTITLE15=Dreams Won't Let Me Forget You 
TTITLE16=Drivin' Nails In My Coffin 
TTITLE17=Drivin' Nails In My Coffin 
TTITLE18=Go Out And Find Somebody New 
TTITLE19=Go Out And Find Somebody New 
TTITLE20=Some Other World 
TTITLE21=Sign On The Dotted Line 
TTITLE22=I'm Leaving This Old World Someday 
TTITLE23=The Same Old Blues 
TTITLE24=It's A Cruel, Cruel World For Me 
TTITLE25=The Stars Fell Out Of Heaven 
TTITLE26=Gotta Have Somethin' 
TTITLE27=Sweetheart Darlin' (MARGE TILLMAN and H. SMITH) 
TTITLE28=You Made Me Live, Love And Die 
EXTD=YEAR: 2004
EXTT0=
EXTT1=
EXTT2=
EXTT3=
EXTT4=
EXTT5=
EXTT6=
EXTT7=
EXTT8=
EXTT9=
EXTT10=
EXTT11=
EXTT12=
EXTT13=
EXTT14=
EXTT15=
EXTT16=
EXTT17=
EXTT18=
EXTT19=
EXTT20=
EXTT21=
EXTT22=
EXTT23=
EXTT24=
EXTT25=
EXTT26=
EXTT27=
EXTT28=
PLAYORDER=
